<?xml version="1.0" standalone="no"?>
<!DOCTYPE svg PUBLIC "-//W3C//DTD SVG 20010904//EN"
 "http://www.w3.org/TR/2001/REC-SVG-20010904/DTD/svg10.dtd">
<svg version="1.0" xmlns="http://www.w3.org/2000/svg"
 width="1020.000000pt" height="1020.000000pt" viewBox="0 0 1020.000000 1020.000000"
 preserveAspectRatio="xMidYMid meet">
<metadata>
Created by potrace 1.14, written by Peter Selinger 2001-2017
</metadata>
<g transform="translate(0.000000,1020.000000) scale(0.100000,-0.100000)"
fill="#000000" stroke="none">
<path d="M8548 10195 c-2 -1 -33 -5 -70 -9 -243 -23 -551 -150 -758 -314 -47
-38 -197 -185 -241 -238 -51 -60 -131 -186 -178 -282 -142 -282 -191 -592
-148 -916 7 -55 12 -130 11 -167 -11 -279 -206 -519 -480 -589 -75 -20 -191
-27 -244 -15 -14 3 -41 8 -60 11 -33 6 -105 34 -198 75 -121 55 -335 124 -507
163 -301 69 -714 81 -1035 31 -112 -17 -149 -24 -172 -31 -10 -3 -30 -8 -45
-10 -49 -9 -203 -54 -302 -89 -499 -173 -947 -491 -1281 -910 -82 -104 -214
-305 -278 -425 -301 -563 -405 -1220 -293 -1850 38 -214 94 -400 178 -600 49
-116 72 -175 79 -205 71 -292 -85 -609 -361 -734 -99 -45 -240 -67 -328 -51
-157 29 -491 32 -568 6 -8 -3 -30 -7 -49 -10 -78 -12 -235 -64 -338 -113 -308
-145 -568 -399 -715 -698 -63 -128 -117 -279 -133 -374 -3 -14 -7 -33 -9 -41
-25 -89 -26 -429 -1 -550 36 -173 69 -271 141 -415 227 -456 682 -777 1180
-833 81 -9 295 -9 375 0 334 38 676 209 911 455 89 93 135 154 227 298 64 103
150 334 176 477 30 161 36 343 18 483 -13 100 -7 249 13 325 54 208 202 371
401 443 88 31 137 40 234 39 97 -1 171 -20 293 -76 332 -151 743 -238 1132
-239 223 -1 401 17 600 59 38 9 78 17 89 19 44 10 271 78 306 92 8 3 17 7 20
7 22 4 217 91 308 138 393 202 724 485 986 843 93 126 85 115 169 260 105 182
168 322 236 524 32 93 84 294 95 361 3 19 7 44 10 55 2 11 7 45 11 75 4 30 9
63 11 73 8 46 18 224 18 337 -1 403 -76 769 -233 1133 -45 103 -61 145 -67
172 -17 78 -21 188 -9 255 23 132 89 257 190 355 126 123 257 176 445 179 63
1 140 -2 170 -6 119 -17 362 -11 465 12 22 5 54 11 71 14 69 12 225 70 331
122 419 206 721 595 818 1054 23 109 29 169 29 315 1 157 -8 247 -36 350 -5
22 -12 49 -14 59 -17 88 -100 280 -171 396 -238 387 -615 635 -1088 715 -40 7
-331 16 -337 10z m327 -211 c416 -67 777 -324 973 -694 36 -69 89 -200 98
-244 2 -10 8 -33 13 -50 26 -80 40 -216 37 -361 -2 -82 -7 -163 -10 -180 -55
-255 -126 -420 -254 -590 -65 -87 -215 -232 -302 -291 -277 -190 -572 -263
-929 -229 -344 32 -566 -30 -764 -215 -172 -160 -267 -380 -268 -615 0 -134
16 -200 100 -404 95 -229 151 -417 181 -609 6 -37 13 -78 15 -92 26 -142 26
-513 0 -690 -2 -14 -6 -45 -10 -70 -61 -423 -270 -901 -545 -1245 -69 -85
-286 -307 -360 -368 -25 -20 -58 -48 -75 -62 -63 -54 -285 -196 -395 -254
-413 -216 -832 -314 -1295 -305 -93 2 -186 6 -205 9 -19 3 -51 7 -70 9 -224
25 -488 98 -720 198 -183 79 -268 98 -430 94 -120 -3 -145 -6 -227 -34 -109
-37 -136 -50 -227 -110 -158 -106 -291 -301 -336 -495 -23 -98 -30 -279 -16
-382 13 -87 11 -279 -3 -360 -7 -38 -14 -82 -16 -96 -14 -78 -97 -302 -135
-359 -9 -14 -43 -65 -75 -114 -180 -273 -492 -480 -830 -551 -110 -24 -354
-28 -470 -10 -429 70 -808 350 -992 735 -37 77 -78 184 -90 235 -77 337 -47
643 92 930 191 396 561 671 995 740 78 12 323 13 390 2 218 -39 376 -19 555
69 390 193 568 654 407 1055 -17 41 -50 125 -75 187 -58 142 -115 338 -141
487 -3 17 -8 41 -11 54 -2 13 -7 49 -10 80 -4 31 -9 70 -12 86 -8 53 -11 378
-3 455 5 41 11 104 15 140 10 99 53 302 91 429 209 690 678 1254 1319 1586
210 109 529 219 720 249 17 2 50 8 75 11 25 4 53 9 64 11 104 19 479 26 621
12 260 -27 534 -99 785 -206 152 -64 170 -70 270 -90 73 -14 272 -5 352 16
332 89 573 367 614 707 7 57 7 222 0 234 -8 13 -20 153 -20 236 0 139 14 239
50 364 135 466 492 812 959 931 44 11 103 23 130 26 28 4 52 8 54 10 10 9 269
0 346 -12z"/>
<path d="M8556 9204 c-195 -47 -355 -201 -410 -395 -17 -59 -23 -181 -11 -244
20 -113 73 -212 156 -296 91 -90 203 -146 314 -156 28 -2 55 -5 60 -7 10 -3
120 9 160 18 132 28 292 159 355 290 71 150 76 334 12 473 -90 196 -274 320
-487 328 -56 2 -112 -2 -149 -11z"/>
<path d="M4989 6766 c-2 -2 -35 -6 -73 -10 -238 -22 -535 -135 -751 -284 -458
-316 -728 -825 -729 -1377 0 -279 51 -506 169 -750 44 -91 143 -256 164 -275
3 -3 23 -26 43 -51 384 -478 1045 -716 1636 -588 52 11 102 22 111 24 59 11
196 65 316 125 379 188 663 503 819 907 34 87 70 215 82 288 3 20 7 45 9 54
29 152 23 399 -16 593 -38 190 -133 425 -233 572 -25 38 -46 72 -46 76 0 5 -3
10 -7 12 -5 2 -34 35 -65 73 -175 217 -431 402 -689 498 -127 48 -227 75 -339
93 -19 3 -46 8 -60 10 -30 6 -335 15 -341 10z m351 -211 c204 -40 284 -66 435
-139 204 -100 381 -246 535 -442 145 -185 262 -481 286 -724 13 -124 5 -394
-12 -421 -2 -4 -6 -25 -9 -48 -8 -59 -68 -239 -114 -336 -239 -511 -771 -848
-1336 -849 -557 0 -1061 304 -1324 798 -62 118 -132 324 -146 430 -3 17 -9 60
-14 96 -15 105 -6 331 18 447 63 303 194 548 411 763 233 233 470 356 805 420
92 17 387 21 465 5z"/>
<path d="M1548 2095 c-2 -1 -30 -5 -64 -8 -217 -21 -416 -201 -468 -426 -18
-78 -14 -218 9 -286 61 -181 197 -316 374 -371 71 -23 203 -26 285 -8 243 55
427 283 428 530 1 102 -15 169 -58 259 -71 146 -214 259 -369 293 -55 12 -132
21 -137 17z"/>
</g>
</svg>
